<svg width="98" height="97" fill="none" xmlns="http://www.w3.org/2000/svg"><path d="M80.5 50.7c-.2 2.7-2.2 4.9-4.9 5.4-1.3.2-2.7.3-4 .3-5.7 0-10.9-2-15-5.3-.3-.2-.6-.5-.9-.8-.8-.8-.8-2 0-2.8 2.2-2.3 4.1-5 5.6-7.9 2.1-4.3 3.3-9.1 3.3-14.2v-.9c-.1-1.7 1.9-2.7 3.2-1.7 1.2.9 2.3 1.9 3.4 2.9 1.9 1.9 3.5 4 4.9 6.3 2.8 4.8 4.5 10.3 4.5 16.3-.1.9-.1 1.7-.1 2.4Zm-3.4 12.1c.1-.2.2-.3.2-.5 0 .2-.1.4-.2.5ZM71.2 71c-1.9 1.9-4 3.5-6.3 4.9-4.8 2.8-10.3 4.5-16.3 4.5-.8 0-1.5 0-2.3-.1-2.7-.2-4.9-2.2-5.4-4.9-.2-1.3-.3-2.7-.3-4 0-5.7 2-10.9 5.3-15 .2-.3.5-.6.8-.9.8-.8 2-.8 2.8 0 2.3 2.2 5 4.1 7.9 5.6 4.3 2.1 9.1 3.3 14.2 3.3h.9c1.7-.1 2.7 1.9 1.7 3.2-.9 1.2-1.9 2.4-3 3.4Zm-36.5 6.3c-.2-.1-.3-.2-.5-.2.2 0 .3.1.5.2ZM21.1 64.8c-2.8-4.8-4.5-10.3-4.5-16.3 0-.8 0-1.5.1-2.3.2-2.7 2.2-4.9 4.9-5.4 1.3-.2 2.6-.3 4-.3 5.7 0 10.9 2 15 5.3.3.2.6.5.9.8.8.8.8 2 0 2.8-2.2 2.3-4.1 5-5.6 7.9-2.1 4.3-3.3 9.1-3.3 14.2v.9c.1 1.7-1.9 2.7-3.2 1.7-1.2-.9-2.3-1.9-3.4-2.9-1.9-2-3.6-4.1-4.9-6.4Zm-1.2-30.6c-.1.1-.1.2-.2.4.1-.2.2-.3.2-.4Zm6-8.3c1.9-1.9 4-3.5 6.3-4.9 4.8-2.8 10.3-4.5 16.3-4.5.8 0 1.5 0 2.3.1 2.7.2 4.9 2.2 5.4 4.9.2 1.3.3 2.6.3 4 0 5.7-2 10.9-5.3 15-.2.3-.5.6-.8.9-.8.8-2 .8-2.8 0-2.3-2.2-5-4.1-7.9-5.6-4.3-2.1-9.1-3.3-14.2-3.3h-.9c-1.7.1-2.7-1.9-1.7-3.2.9-1.2 1.9-2.4 3-3.4Zm37-6c-.1-.1-.3-.1-.4-.2.1 0 .2.1.4.2Zm33.2 20.5h-3.8c-1.6 0-3.1 1-3.6 2.6-.1.3-.3.7-.4 1-.6-5.5-2.3-10.6-4.9-15.1-1.3-2.2-1.9-4.8-1.6-7.4.5-4.3-.8-8.8-3.9-12.3-.4-.4-1-.4-1.4 0L74 11.7c-1.4 1.4-1.7 3.1-.9 4.6.2.3.3.7.4 1-4.2-3.3-9.1-5.9-14.4-7.3-2.5-.7-4.6-2.1-6.2-4.1C50.2 2.5 46.2.3 41.5 0c-.6 0-1 .4-1 1v3.8c0 1.6 1 3.1 2.6 3.6.3.1.7.3 1 .4-5.5.6-10.6 2.3-15.1 4.9-2.2 1.3-4.8 1.9-7.4 1.6-4.3-.5-8.8.8-12.3 3.9-.4.4-.4 1.1 0 1.5l2.7 2.7c1.1 1.1 2.9 1.4 4.3.7.3-.2.7-.3 1-.4-3.4 4.2-5.9 9.1-7.3 14.4-.7 2.5-2.1 4.6-4.1 6.2C2.5 47 .3 51 0 55.7c0 .6.4 1 1 1h3.8c1.6 0 3.1-1 3.6-2.6.1-.3.3-.7.4-1 .6 5.5 2.3 10.6 4.9 15.1 1.3 2.2 1.9 4.8 1.6 7.3-.5 4.3.8 8.8 3.9 12.3.4.4 1 .4 1.4 0l2.5-2.5c1.4-1.4 1.7-3.1.9-4.6-.2-.3-.3-.7-.4-1 4.2 3.4 9.1 5.9 14.4 7.3 2.5.7 4.6 2.1 6.2 4.1 2.7 3.4 6.7 5.6 11.4 5.9.6 0 1-.4 1-1v-3.8c0-1.6-1-3.1-2.6-3.6-.3-.1-.7-.3-1-.4 5.5-.6 10.6-2.3 15.1-4.9 2.2-1.3 4.8-1.9 7.3-1.6 4.3.5 8.8-.8 12.3-3.9.4-.4.4-1 0-1.5l-2.6-2.6c-1.1-1.1-2.9-1.4-4.3-.7-.3.2-.7.3-1 .4 3.3-4.2 5.8-9 7.3-14.4.7-2.5 2.1-4.6 4.1-6.2 3.4-2.7 5.6-6.7 5.9-11.4 0-.5-.4-1-1-1Z" fill="#000"/></svg>