<svg width="67" height="80" fill="none" xmlns="http://www.w3.org/2000/svg"><path fill-rule="evenodd" clip-rule="evenodd" d="M30.9 27.004c.6.3 1.2.4 1.8.4 1.8 0 3.4-1.2 3.9-3 1.266-4.771 3.006-6.034 5.127-7.575l.173-.125c2.9-1.9 6.4-4.4 7.5-12.1.3-2.3-1.4-4.5-3.8-4.6-2.1-.1-3.9 1.6-4.2 3.7-.6 4-1.9 4.9-4.1 6.4-2.7 1.8-6.4 4.4-8.5 11.9-.5 1.9.3 4.1 2.1 5Zm-18.2 3.7c-.6 0-1.2-.1-1.8-.4-1.8-.8-2.6-3-2.1-4.9 2.1-7.5 5.8-10.1 8.5-11.9 2.2-1.5 3.5-2.4 4.1-6.4.3-2.1 2.1-3.8 4.2-3.8 2.4.1 4.1 2.3 3.8 4.6-1.1 7.7-4.6 10.2-7.5 12.1-2.2 1.5-4 2.8-5.3 7.7-.5 1.8-2.1 3-3.9 3Zm38.6 23.5c1.7-2.3 3-4.9 3.8-7.7.3-1.3-.6-2.6-2-2.7H10.8c-1.3 0-2.3 1.2-1.9 2.5.1.5.3 1 .5 1.5.05.1.075.2.1.3.025.1.05.2.1.3.1.4.3.8.5 1.2.05.15.125.3.2.45.075.15.15.3.2.45.1.15.175.3.25.45.075.15.15.3.25.45.2.3.375.6.55.9.175.3.35.6.55.9v.1c.3.5.6.9 1 1.4l.2.2c.2.2.375.4.55.6.175.2.35.4.55.6l.3.3c.2.15.375.325.55.5.175.175.35.35.55.5.05.05.125.1.2.15.075.05.15.1.2.15.3.3.6.6 1 .9.1.05.175.125.25.2.075.075.15.15.25.2.108.072.215.157.328.245.2.158.416.327.672.455.1.05.2.125.3.2.1.075.2.15.3.2.15.1.325.2.5.3.175.1.35.2.5.3.15.05.275.125.4.2.125.075.25.15.4.2.15.1.325.175.5.25.175.075.35.15.5.25.3.2.6.3.9.4.3.2.6.3.9.4.15.05.325.1.5.15.174.05.35.1.5.15l.9.3 1.2.3.091.031.086.03c.21.077.386.14.623.14.25.05.475.074.7.1.225.024.45.05.7.1.1 0 .2.024.3.05.1.024.2.05.3.05.7.1 1.4.1 2.1.1h.1c.7 0 1.3 0 2-.1.15 0 .275-.026.4-.05.125-.026.25-.05.4-.05a7.82 7.82 0 0 1 .648-.096c.227-.027.44-.052.652-.105.15-.05.3-.075.45-.1.15-.025.3-.05.45-.1.3 0 .7-.1 1-.2.15-.05.325-.1.5-.15.175-.05.35-.1.5-.15l.9-.3c.2-.05.375-.125.55-.2.175-.075.35-.15.55-.2.1-.05.225-.1.35-.15.125-.05.25-.1.35-.15.297-.074.538-.203.806-.346.094-.05.19-.102.294-.154l.6-.3c.2-.1.4-.225.6-.35.2-.125.4-.25.6-.35.1-.05.175-.1.25-.15.075-.05.15-.1.25-.15.4-.2.8-.5 1.2-.8.2-.1.3-.2.4-.3.2-.15.4-.325.6-.5.2-.175.4-.35.6-.5 0-.062.038-.085.091-.118.033-.02.07-.044.109-.082l1.3-1.3c.7-.7 1.3-1.4 1.8-2.1l.1-.1Zm-47.2-18.3h55.8c2.2 0 4.1 1.8 4.2 4 0 1.4-.1 2.7-.3 4-.3 2.4-.9 4.7-1.7 6.9-.15.35-.3.725-.45 1.1-.15.375-.3.75-.45 1.1-.1.2-.175.375-.25.55-.075.175-.15.35-.25.55-.3.7-.7 1.4-1.1 2.1-.12.12-.206.28-.298.451-.06.112-.123.23-.202.35-1.2 1.9-2.6 3.7-4.2 5.3l-.5.5c-.35.3-.725.624-1.1.95-.375.324-.75.65-1.1.95-.1.2-.2.3-.4.4-2.8 2.2-6 3.9-9.4 5.1h-.1c1.3 1.4 2.8 2.6 4.3 3.6 1.3.9 1.3 2.8-.1 3.5-1.5.7-3.1 1.4-4.7 1.9-.6.2-1.3.1-1.8-.3-1-.8-2-1.6-3-2.6-2.7-2.8-7.2-2.7-9.9 0-.738.819-1.61 1.504-2.451 2.165-.185.146-.369.29-.549.434-.5.4-1.2.5-1.8.3-1.6-.5-3.2-1.1-4.7-1.9-1.4-.7-1.4-2.7-.1-3.5 1.5-1 3-2.2 4.3-3.6h-.1c-3.4-1.2-6.6-2.9-9.4-5.1l-.3-.3c-.8-.6-1.6-1.3-2.3-2-.07-.14-.188-.23-.287-.306a1.174 1.174 0 0 1-.113-.094c-1.6-1.6-3.1-3.4-4.3-5.4-.2-.2-.3-.4-.4-.6-.5-.8-.9-1.6-1.3-2.4-.05-.15-.125-.3-.2-.45a3.54 3.54 0 0 1-.2-.45c-.4-.8-.7-1.6-1-2.5-.7-2.2-1.3-4.4-1.6-6.7-.2-1.3-.3-2.6-.3-4 0-2.2 1.9-4 4.1-4Zm45.3-5.2c-.6 0-1.2-.1-1.8-.4-1.8-.8-2.6-3-2.1-5 2.1-7.5 5.8-10.1 8.5-11.9 2.2-1.5 3.5-2.4 4.1-6.4.3-2.1 2.1-3.8 4.2-3.7 2.4.1 4.1 2.3 3.8 4.6-1.1 7.7-4.6 10.2-7.5 12.1-2.2 1.5-4 2.8-5.3 7.7-.5 1.8-2.1 3-3.9 3Z" fill="#000"/></svg>