<svg width="16" height="16" fill="none" xmlns="http://www.w3.org/2000/svg"><path d="M14 12.1V4c.2 0 .3.1.5.1.6 0 1.1-.2 1.5-.5v9c-.4-.3-.9-.5-1.5-.5-.2-.1-.3-.1-.5 0Zm.5-9.1c-.8 0-1.5-.7-1.5-1.5S13.7 0 14.5 0 16 .7 16 1.5 15.3 3 14.5 3ZM12 2H4v-.5C4 .9 3.8.4 3.5 0h9c-.3.4-.5.9-.5 1.5V2ZM1.5 16C.7 16 0 15.3 0 14.5S.7 13 1.5 13s1.5.7 1.5 1.5S2.3 16 1.5 16Zm0-13C.7 3 0 2.3 0 1.5S.7 0 1.5 0 3 .7 3 1.5 2.3 3 1.5 3Zm.5.9V12c-.2 0-.3-.1-.5-.1-.6 0-1.1.2-1.5.5v-9c.4.3.9.5 1.5.5.2.1.3.1.5 0ZM4 14h8.1v.5c0 .6.2 1.1.5 1.5h-9c.3-.4.5-.9.5-1.5-.1-.2-.1-.3-.1-.5Zm10.5-1c.8 0 1.5.7 1.5 1.5s-.7 1.5-1.5 1.5-1.5-.7-1.5-1.5.7-1.5 1.5-1.5Z" fill="#000000"/></svg>