<svg width="97" height="89" fill="none" xmlns="http://www.w3.org/2000/svg"><path fill-rule="evenodd" clip-rule="evenodd" d="M68.5 62.8c2.1-2.9 3.5-6.3 4.1-9.9.209-.904.32-1.808.437-2.745.05-.411.102-.828.163-1.255 0-1.4-.2-2.7-.4-4-.6-3.7-2-7-4.1-9.9-1.6-2.2-3.5-4.1-5.7-5.7-2.9-2.1-6.3-3.5-9.9-4.1-1.3-.3-2.6-.4-4-.4s-2.7.2-4 .4c-3.7.6-7 2-9.9 4.1-2.2 1.6-4.1 3.5-5.7 5.7-2.1 2.9-3.5 6.3-4.1 9.9-.3 1.3-.4 2.6-.4 4s.2 2.7.4 4c.6 3.7 2 7 4.1 9.9.5.7 1.1 1.4 1.7 2.1h35.6c.6-.7 1.2-1.4 1.7-2.1Zm24.2-17.9c2 0 3.9 1.3 4.2 3.3.5 2.5-1.5 4.7-3.9 4.7h-8.9c-1.9 0-3.5 1.3-3.9 3.1-.7 3.2-1.9 6.2-3.5 8.9H85c2.2 0 4 1.8 4 4s-1.8 4-4 4H13c-2.2 0-4-1.8-4-4s1.8-4 4-4h8.2c-1.6-2.8-2.8-5.7-3.5-8.9-.4-1.8-2-3.1-3.9-3.1H4.9c-2.4 0-4.3-2.2-3.9-4.7.3-1.9 2.2-3.3 4.2-3.3H14c1.9 0 3.5-1.3 3.9-3.1.8-3.5 2.2-6.8 4.1-9.8 1-1.6.8-3.7-.5-5l-6.3-6.3c-1.7-1.7-1.6-4.6.5-6.1 1.6-1.2 3.9-.8 5.3.6l6.1 6.1c1.3 1.3 3.4 1.5 5 .5 3-1.9 6.3-3.3 9.8-4.1 1.8-.4 3.1-2 3.1-3.9V4.9c0-2.4 2.2-4.4 4.8-4 2 .3 3.3 2.2 3.3 4.2v8.7c0 1.9 1.3 3.5 3.1 3.9 3.5.8 6.8 2.2 9.8 4.1 1.6 1 3.7.8 5-.5l6.1-6.2c1.7-1.7 4.6-1.6 6.1.5 1.2 1.6.8 3.9-.6 5.3L76.5 27c-1.3 1.3-1.5 3.4-.5 5 1.9 3 3.3 6.3 4.1 9.8.4 1.8 2 3.1 3.9 3.1h8.7ZM21 80.9h56c2.2 0 4 1.8 4 4s-1.8 4-4 4H21c-2.2 0-4-1.8-4-4s1.8-4 4-4Z" fill="#000"/></svg>