<svg width="106" height="97" fill="none" xmlns="http://www.w3.org/2000/svg"><path fill-rule="evenodd" clip-rule="evenodd" d="M28.9 8.9c3.9 0 7 3.1 7 7s-3.1 7-7 7-7-3.1-7-7 3.2-7 7-7Zm0 22c8.3 0 15-6.7 15-15s-6.7-15-15-15-15 6.7-15 15 6.7 15 15 15Zm48.2-22c3.9 0 7 3.1 7 7s-3.1 7-7 7-7-3.1-7-7 3.1-7 7-7Zm0 22c8.3 0 15-6.7 15-15s-6.7-15-15-15-15 6.7-15 15 6.7 15 15 15Zm4.5 18.45c1.325-2.275 2.65-4.55 3.7-6.35.4-.7-.1-1.5-.9-1.5H69.7c-.8 0-1.3.8-.9 1.5 1.05 1.8 2.375 4.075 3.7 6.35 1.325 2.275 2.65 4.55 3.7 6.35.4.7 1.3.7 1.7 0 1.05-1.8 2.375-4.075 3.7-6.35Zm2.8 39.55c.8 0 1.3-.8.9-1.5-.415-.708-.943-1.618-1.536-2.64-1.837-3.168-4.3-7.414-5.964-10.06-.4-.7-1.3-.7-1.7 0-2 3.501-5.6 9.8-7.3 12.7-.4.7.1 1.5.9 1.5h14.7Zm-51-39.549L37.1 43c.4-.7-.1-1.5-.9-1.5H21.5c-.8 0-1.3.8-.9 1.5 1.05 1.8 2.375 4.075 3.7 6.35 1.325 2.275 2.65 4.55 3.7 6.35.4.7 1.3.7 1.7 0l3.7-6.349ZM96.6 35.5l7.8 13.6c1 1.7.8 4.1-.8 5.3-2 1.6-4.8 1-6-1.1 0 0-2.3-3.9-3.7-6.4-.4-.7-1.3-.7-1.7 0-3.3 5.8-10.5 18.2-10.5 18.2v.1l14.6 25.3c.6.7.9 1.6.9 2.5 0 1.9-1.3 3.5-3 3.9-.1.1-.3.1-.4.1H61.1c-.9 0-1.7-.3-2.5-.9-.9-.8-1.4-1.9-1.4-3V92.8c0-.1.025-.225.05-.35.025-.125.05-.25.05-.35.1-.5.2-1 .5-1.5l14.6-25.4v-.1s-7.2-12.4-10.5-18.2c-.4-.7-1.3-.7-1.7 0-1.4 2.5-3.7 6.4-3.7 6.4-.7 1.3-2.1 2-3.5 2s-2.7-.7-3.5-2c0 0-2.3-3.9-3.7-6.4-.4-.7-1.3-.7-1.7 0-1.275 2.178-2.775 4.779-4.382 7.563-1.417 2.458-2.918 5.058-4.418 7.637-1.1 1.9-1.1 4.1 0 6 4.6 8 13.1 22.7 13.1 22.7 1.3 2.2.2 5.2-2.4 5.9-1.8.6-3.7-.4-4.6-2l-11.6-20c-.4-.7-1.3-.7-1.7 0L16.4 94.9c-1.2 2.1-4 2.7-6 1.1-1.6-1.3-1.8-3.6-.8-5.4 0 0 8.4-14.5 13-22.4 1.1-1.9 1.1-4.2 0-6-1.5-2.579-3-5.18-4.419-7.637A1471.62 1471.62 0 0 0 13.8 47c-.4-.7-1.3-.7-1.7 0-1.4 2.5-3.7 6.4-3.7 6.4-1.2 2.1-4 2.7-6 1.1-1.6-1.3-1.8-3.6-.8-5.4l7.8-13.6.1-.1c0-.05.025-.075.05-.1.025-.025.05-.05.05-.1l.2-.2c.1-.1.2-.2.4-.3l.1-.1c0-.062.038-.085.091-.118.033-.02.07-.044.109-.082l.2-.2c.05 0 .075-.025.1-.05.025-.025.05-.05.1-.05 0 0 0-.1.1-.1 0-.1.1-.1.1-.1.05 0 .075-.025.1-.05.025-.025.05-.05.1-.05 0 0 .1-.1.2-.1.05 0 .1-.025.15-.05.05-.025.1-.05.15-.05h.2c.1-.1.2-.1.3-.1h33.2c.1.1.2.1.3.1h.2c.05 0 .1.025.15.05.05.025.1.05.15.05.05 0 .075.025.1.05.025.025.05.05.1.05s.075.025.1.05c.025.025.05.05.1.05.057.058.082.082.111.092A.273.273 0 0 0 46.9 34c.043 0 .068.019.107.048.05.039.123.095.293.152l.1.1c.1 0 .1 0 .2.1.1 0 .2.1.3.2l.1.1.2.2c.05.05.075.1.1.15.025.05.05.1.1.15 0 .05.025.075.05.1.025.025.05.05.05.1l.1.1 4.6 8 4.6-8 .1-.1c0-.05.025-.075.05-.1.025-.025.05-.05.05-.1l.2-.2c.062 0 .085-.038.118-.091.02-.033.044-.07.082-.109l.1-.1c0-.062.038-.085.091-.118.033-.02.07-.044.109-.082l.2-.2c.05 0 .075-.025.1-.05.025-.025.05-.05.1-.05l.1-.1c0-.1.1-.1.1-.1.05 0 .075-.025.1-.05.025-.025.05-.05.1-.05 0 0 .1-.1.2-.1.05 0 .1-.025.15-.05.05-.025.1-.05.15-.05h.2c.1-.1.2-.1.3-.1h33.2c.1.1.2.1.3.1h.2c.05 0 .1.025.15.05.05.025.1.05.15.05.05 0 .075.025.1.05.025.025.05.05.1.05s.075.025.1.05c.025.025.05.05.1.05.057.057.082.082.111.092.022.008.047.008.089.008.05 0 .075.025.1.05.025.025.05.05.1.05l.1.1c.1 0 .1 0 .2.1.1 0 .2.1.3.2l.1.1.2.2c.05.05.075.1.1.15.025.05.05.1.1.15 0 .05.025.075.05.1.025.025.05.05.05.1l.1.1Z" fill="#000"/></svg>