<svg width="96" height="96" fill="none" xmlns="http://www.w3.org/2000/svg"><path fill-rule="evenodd" clip-rule="evenodd" d="M88 86c0 1.1-.9 2-2 2H64V76c0-8.8-7.2-16-16-16s-16 7.2-16 16v12H10c-1.1 0-2-.9-2-2V64c0-6.6 5.4-12 12-12h56c6.6 0 12 5.4 12 12v22Zm-48 2V76c0-4.4 3.6-8 8-8s8 3.6 8 8v12H40ZM24 40c0-6.6 5.4-12 12-12h24c6.6 0 12 5.4 12 12v2c0 1.1-.9 2-2 2H26c-1.1 0-2-.9-2-2v-2ZM48 8c6.1 0 12.3 4.6 11.9 10.5-.1.9-1 1.5-1.9 1.5H38c-.9 0-1.8-.6-1.9-1.5C35.7 12.6 41.9 8 48 8Zm32 36.1V38c0-7.8-5-14.5-12-16.9V18c0-9.9-8.1-18-18-18h-4c-9.9 0-18 8.1-18 18v3.1c-7 2.5-12 9.1-12 16.9v6.1C7 45.1 0 52.8 0 62v28c0 3.3 2.7 6 6 6h84c3.3 0 6-2.7 6-6V62c0-9.2-7-16.9-16-17.9ZM20 60c-2.2 0-4 1.8-4 4s1.8 4 4 4 4-1.8 4-4-1.8-4-4-4Zm52 4c0-2.2 1.8-4 4-4s4 1.8 4 4-1.8 4-4 4-4-1.8-4-4Z" fill="#000"/></svg>