<svg width="97" height="97" fill="none" xmlns="http://www.w3.org/2000/svg"><path fill-rule="evenodd" clip-rule="evenodd" d="m32.3 10.6 2.8 2.8c1.6 1.5 1.6 4.1 0 5.7-1.6 1.6-4.1 1.6-5.7 0l-2.8-2.8-2.8 2.8c-1.6 1.6-4.1 1.6-5.7 0-1.6-1.6-1.6-4.1 0-5.7l2.8-2.8-2.8-2.8c-1.6-1.6-1.6-4.1 0-5.7 1.6-1.6 4.1-1.6 5.7 0l2.8 2.8 2.8-2.8c1.6-1.6 4.1-1.6 5.7 0 1.6 1.6 1.6 4.1 0 5.7l-2.8 2.8ZM13.4 70.8c1.6-1.6 4.1-1.6 5.7 0 1.6 1.5 1.6 4.1.1 5.6l-2.8 2.8 2.8 2.8c1.6 1.6 1.6 4.1 0 5.7-1.6 1.6-4.1 1.6-5.7 0l-2.8-2.8-2.8 2.8c-1.6 1.6-4.1 1.6-5.7 0-1.6-1.6-1.6-4.1 0-5.7L5 79.2l-2.9-2.7c-1.6-1.6-1.6-4.1 0-5.7 1.6-1.6 4.1-1.6 5.7 0l2.8 2.8 2.8-2.8Zm32.2-10.9c8.8.5 17.8-2.6 24.5-9.3 6.9-6.9 10-16.3 9.2-25.3.8.6 1.6 1.3 2.3 2 9.5 9.5 9.5 24.9 0 34.4s-24.9 9.5-34.4 0c-.6-.6-1.1-1.2-1.6-1.8Zm47.4 13H80c2.2-1.2 4.3-2.7 6.3-4.5C99.5 56 99.8 35.1 87 22.3c-3-3-6.5-5.3-10.1-6.8-1.8-.8-3.6-1.3-5.5-1.8-1.7-.4-3 1.3-2.3 2.8.7 1.4 1.3 2.9 1.7 4.5 2.2 8.2.2 17.3-6.2 23.7-6.4 6.5-15.5 8.5-23.6 6.3-1.7-.5-3.4-1.1-5-2-1.5-.8-3.2.5-2.9 2.1.4 2.2 1.1 4.3 1.9 6.4 1.9 4.6 4.9 8.8 9.1 12.2 1.5 1.2 3.1 2.3 4.8 3.2H37c-2.2 0-4 1.8-4 4s1.8 4 4 4h56c2.2 0 4-1.8 4-4s-1.8-4-4-4Zm-48 16h40c2.2 0 4 1.8 4 4s-1.8 4-4 4H45c-2.2 0-4-1.8-4-4s1.8-4 4-4Z" fill="#000"/></svg>