<svg width="16" height="16" fill="none" xmlns="http://www.w3.org/2000/svg"><path d="M15 16H3c-.6 0-1-.4-1-1H1c-.6 0-1-.4-1-1s.4-1 1-1h1v-1H1c-.6 0-1-.4-1-1s.4-1 1-1h1V9H1c-.6 0-1-.4-1-1s.4-1 1-1h1V6H1c-.6 0-1-.4-1-1s.4-1 1-1h1V3H1c-.6 0-1-.4-1-1s.4-1 1-1h1c0-.6.4-1 1-1h12c.6 0 1 .4 1 1v14c0 .6-.4 1-1 1ZM11 6c0-1.1-.9-2-2-2s-2 .9-2 2v1c0 1.1.9 2 2 2s2-.9 2-2V6Zm2 3.5c0-.1 0-.2-.1-.2-.1-.4-.6-.7-1.3-.9-.5 1-1.5 1.6-2.6 1.6s-2.1-.7-2.6-1.6c-.7.2-1.1.5-1.3.9 0 .1-.1.1-.1.2v2c0 .3.2.5.5.5h7c.3 0 .5-.2.5-.5v-2Z" fill="#000000"/></svg>