<svg width="96" height="89" fill="none" xmlns="http://www.w3.org/2000/svg"><path fill-rule="evenodd" clip-rule="evenodd" d="M52.7 41.2c-.4 1.3.6 2.5 1.9 2.5h30.8c1.3 0 2.3-1.3 1.9-2.5C85.2 33.6 78.2 28 70 28c-8.2 0-15.2 5.6-17.3 13.2ZM33 21c5.4 1.5 10 4.7 13.4 9 .8 1 2.4 1 3 0 3.4-4.3 8-7.5 13.4-9 1.2-.3 1.8-1.6 1.3-2.7-2.9-6-9.1-10.2-16.2-10.2s-13.3 4.2-16.2 10.2c-.5 1 .1 2.4 1.3 2.7ZM10.6 43.7h30.8c1.3 0 2.3-1.3 1.9-2.5C41.2 33.6 34.2 28 26 28c-8.2 0-15.2 5.6-17.3 13.2-.4 1.3.6 2.5 1.9 2.5Zm64-23.2C86 22.5 94.9 32 95.9 43.7L96 46c0 3.3-2.7 6-6 6H6c-3.3 0-6-2.7-6-6l.1-2.3C1.2 31.9 10 22.5 21.4 20.5c.8-.2 1.4-.7 1.6-1.5.7-2.4 1.7-4.7 3-6.8C30.6 4.9 38.7 0 48 0c11.9 0 22 8 25 19 .2.8.8 1.4 1.6 1.5ZM19.1 56.8c-2.1-.6-4.3.7-4.9 2.8l-4.1 15.5c-.6 2.1.7 4.3 2.8 4.9 2.1.6 4.3-.7 4.9-2.8l4.1-15.5c.6-2.1-.7-4.3-2.8-4.9Zm32 0c-2.1-.6-4.3.7-4.9 2.8l-4.1 15.5c-.6 2.1.7 4.3 2.8 4.9 2.1.6 4.3-.7 4.9-2.8l4.1-15.5c.6-2.1-.7-4.3-2.8-4.9Zm27.1 2.8c.6-2.1 2.8-3.4 4.9-2.8 2.1.6 3.4 2.8 2.8 4.9l-4.1 15.5c-.6 2.1-2.8 3.4-4.9 2.8-2.1-.6-3.4-2.8-2.8-4.9l4.1-15.5Zm-15 .2c.6-2.1 2.8-3.4 4.9-2.8 2.2.5 3.4 2.7 2.9 4.9l-6.3 23.2c-.6 2.1-2.8 3.4-4.9 2.8-2.1-.6-3.4-2.8-2.8-4.9l6.2-23.2Zm-32 0c.6-2.1 2.8-3.4 4.9-2.8 2.2.5 3.4 2.7 2.9 4.9l-6.3 23.2c-.6 2.1-2.8 3.4-4.9 2.8-2.1-.6-3.4-2.8-2.8-4.9l6.2-23.2Z" fill="#000"/></svg>