<svg width="97" height="89" fill="none" xmlns="http://www.w3.org/2000/svg"><path fill-rule="evenodd" clip-rule="evenodd" d="M61 6C63.9 2.9 68.1.9 72.7.9c1.2 0 2.4.2 3.5.4.5.1.8.5.8 1v2.4c0 2.3-1.9 4.2-4.4 4.2-3.8 0-7 2.7-7.8 6.3-.2 1-1 1.7-2 1.7H59c-1 0-1.8-.7-2-1.7-.7-3.6-4-6.3-7.8-6.3C46.9 8.9 45 7 45 4.7V2.3c0-.5.4-.9.8-1 1.1-.2 2.3-.4 3.5-.4 4.6 0 8.8 2 11.7 5.1ZM28.7 16.9c-4.6 0-8.8 2-11.7 5.1-2.9-3.1-7.1-5.1-11.7-5.1-1.2 0-2.4.2-3.5.4-.4.1-.8.5-.8 1v2.4c0 2.3 1.9 4.2 4.2 4.2 3.8 0 7.1 2.7 7.8 6.3.2 1 1 1.7 2 1.7h3.8c1 0 1.8-.7 2-1.7.8-3.6 4-6.3 7.8-6.3 2.3 0 4.2-1.9 4.2-4.2v-2.4c0-.5-.3-.9-.8-1-.9-.2-2.1-.4-3.3-.4Zm20.1 24C23.7 40.9 3.2 60.1 1 84.7c-.2 2.3 1.6 4.2 3.9 4.2H5c2.1 0 3.7-1.6 3.9-3.6 1.8-20.4 19-36.4 39.8-36.4 20.8 0 38 16 39.8 36.4.2 2 1.9 3.6 3.9 3.6h.1c2.3 0 4.1-2 3.9-4.2-1.9-24.6-22.5-43.8-47.6-43.8Zm0 16c-16.1 0-29.5 12-31.7 27.5-.3 2.4 1.5 4.5 3.9 4.5h.1c1.9 0 3.6-1.4 3.9-3.3 1.6-11.7 11.6-20.7 23.8-20.7 12.2 0 22.2 9 23.8 20.7.3 1.9 2 3.3 3.9 3.3h.1c2.4 0 4.2-2.1 3.9-4.5C78.3 68.9 65 56.9 48.8 56.9ZM33.6 84c2.1-6.5 8.1-11.1 15.2-11.1S62 77.5 64 84c.8 2.4-1 4.9-3.6 4.9h-.5c-1.7 0-3-1.1-3.6-2.7-1.1-3.1-4.1-5.3-7.5-5.3-3.4 0-6.4 2.2-7.5 5.3-.6 1.6-1.9 2.7-3.6 2.7h-.5c-2.6 0-4.4-2.5-3.6-4.9Z" fill="#000"/></svg>