<svg width="96" height="48" fill="none" xmlns="http://www.w3.org/2000/svg"><path fill-rule="evenodd" clip-rule="evenodd" d="M.192 11.1c2.1-6.5 8.1-11.1 15.2-11.1s13.2 4.6 15.2 11.1c.8 2.4-1 4.9-3.6 4.9h-.5c-1.7 0-3-1.1-3.6-2.7-1.1-3.1-4.1-5.3-7.5-5.3-3.4 0-6.4 2.2-7.5 5.3-.6 1.6-1.9 2.7-3.6 2.7h-.5c-2.6 0-4.4-2.5-3.6-4.9Zm0 16c2.1-6.5 8.1-11.1 15.2-11.1s13.2 4.6 15.2 11.1c.8 2.4-1 4.9-3.6 4.9h-.5c-1.7 0-3-1.1-3.6-2.7-1.1-3.1-4.1-5.3-7.5-5.3-3.4 0-6.4 2.2-7.5 5.3-.6 1.6-1.9 2.7-3.6 2.7h-.5c-2.6 0-4.4-2.5-3.6-4.9Zm15.2 4.9c-7.1 0-13.1 4.6-15.2 11.1-.8 2.4 1 4.9 3.6 4.9h.5c1.7 0 3-1.1 3.6-2.7 1.1-3.1 4.1-5.3 7.5-5.3 3.4 0 6.4 2.2 7.5 5.3.6 1.6 1.9 2.7 3.6 2.7h.5c2.6 0 4.4-2.5 3.6-4.9-2-6.5-8.1-11.1-15.2-11.1Zm65.2 0c-7.1 0-13.1 4.6-15.2 11.1-.8 2.4 1 4.9 3.6 4.9h.5c1.7 0 3-1.1 3.6-2.7 1.1-3.1 4.1-5.3 7.5-5.3 3.4 0 6.4 2.2 7.5 5.3.6 1.6 1.9 2.7 3.6 2.7h.5c2.6 0 4.4-2.5 3.6-4.9-2.1-6.5-8.1-11.1-15.2-11.1Zm0-16c-7.1 0-13.1 4.6-15.2 11.1-.8 2.4 1 4.9 3.6 4.9h.5c1.7 0 3-1.1 3.6-2.7 1.1-3.1 4.1-5.3 7.5-5.3 3.4 0 6.4 2.2 7.5 5.3.6 1.6 1.9 2.7 3.6 2.7h.5c2.6 0 4.4-2.5 3.6-4.9-2.1-6.5-8.1-11.1-15.2-11.1Zm-32.6 16c-7.1 0-13.1 4.6-15.2 11.1-.8 2.4 1 4.9 3.6 4.9h.5c1.7 0 3-1.1 3.6-2.7 1.1-3.1 4.1-5.3 7.5-5.3 3.4 0 6.4 2.2 7.5 5.3.6 1.6 1.9 2.7 3.6 2.7h.5c2.6 0 4.4-2.5 3.6-4.9-2.1-6.5-8.1-11.1-15.2-11.1Zm-15.2-4.9c2.1-6.5 8.1-11.1 15.2-11.1s13.1 4.6 15.2 11.1c.8 2.4-1 4.9-3.6 4.9h-.5c-1.7 0-3-1.1-3.6-2.7-1.1-3.1-4.1-5.3-7.5-5.3-3.4 0-6.4 2.2-7.5 5.3-.6 1.6-1.9 2.7-3.6 2.7h-.5c-2.6 0-4.4-2.5-3.6-4.9ZM47.992 0c-7.1 0-13.1 4.6-15.2 11.1-.8 2.4 1 4.9 3.6 4.9h.5c1.7 0 3-1.1 3.6-2.7 1.1-3.1 4.1-5.3 7.5-5.3 3.4 0 6.4 2.2 7.5 5.3.6 1.6 1.9 2.7 3.6 2.7h.5c2.6 0 4.4-2.5 3.6-4.9-2.1-6.5-8.1-11.1-15.2-11.1Zm21.5 16h-.5c-2.6 0-4.4-2.5-3.6-4.9 2.1-6.5 8.1-11.1 15.2-11.1s13.1 4.6 15.2 11.1c.8 2.4-1 4.9-3.6 4.9h-.5c-1.7 0-3-1.1-3.6-2.7-1.1-3.1-4-5.3-7.5-5.3-3.4 0-6.4 2.2-7.5 5.3-.6 1.6-1.9 2.7-3.6 2.7Z" fill="#000"/></svg>