<svg width="16" height="16" fill="none" xmlns="http://www.w3.org/2000/svg"><path fill-rule="evenodd" clip-rule="evenodd" d="M8 4c2.2 0 4 1.8 4 4s-1.8 4-4 4-4-1.8-4-4 1.8-4 4-4ZM0 8c0-.6.4-1 1-1h1.1c.2-.9.5-1.7 1-2.5l-.8-.8c-.4-.4-.4-1 0-1.4.4-.4 1-.4 1.4 0l.8.8c.7-.5 1.6-.9 2.5-1V1c0-.6.4-1 1-1s1 .4 1 1v1.1c.9.2 1.7.5 2.5 1l.8-.8c.4-.4 1-.4 1.4 0 .4.4.4 1 0 1.4l-.8.8c.5.7.9 1.6 1 2.5H15c.6 0 1 .4 1 1s-.4 1-1 1h-1.1c-.2.9-.5 1.7-1 2.5l.8.8c.4.4.4 1 0 1.4-.4.4-1 .4-1.4 0l-.8-.8c-.7.5-1.6.9-2.5 1V15c0 .6-.4 1-1 1s-1-.4-1-1v-1.1c-.9-.2-1.7-.5-2.5-1l-.8.8c-.4.4-1 .4-1.4 0-.4-.4-.4-1 0-1.4l.8-.8c-.5-.7-.9-1.6-1-2.5H1c-.6 0-1-.4-1-1Zm8-2c-1.1 0-2 .9-2 2s.9 2 2 2 2-.9 2-2-.9-2-2-2Z" fill="#000000"/></svg>