<svg width="81" height="95" fill="none" xmlns="http://www.w3.org/2000/svg"><path d="M74.027 1.477c-.3-1-1.4-1.7-2.4-1.4l-21.2 5.4c-.2.1-.3.3-.3.5l.7 2.6c.7 2.6 3.4 4.2 6.1 3.5l1.1-.3c1.7-.5 3.1 1.4 2.2 2.9l-20.2 34.9-20.2-35c-.9-1.5.5-3.4 2.2-2.9l1.1.3c2.6.7 5.4-.9 6.1-3.5l.7-2.6c.1-.2-.1-.4-.3-.5l-21.2-5.3c-1.1-.3-2.2.3-2.4 1.4l-6 21c-.1.2.1.4.3.5l2.6.7c2.6.7 5.4-.9 6.1-3.5l.2-1.1c.5-1.7 2.8-2 3.7-.5l19.3 33.4h-4.2c-2.2 0-4 1.8-4 4s1.8 4 4 4h6l-16.5 28.5c-1.2 2.1-.3 4.9 2.1 5.8 1.9.7 4-.2 5-1.9l15.4-26.8 15.4 26.7c1 1.7 3.1 2.6 5 1.9 2.4-.9 3.3-3.6 2.1-5.8l-16.5-28.4h6c2.2 0 4-1.8 4-4s-1.8-4-4-4h-4.1l19.3-33.4c.9-1.5 3.2-1.2 3.7.5l.3 1.1c.7 2.6 3.4 4.2 6.1 3.5l2.6-.7c.2-.1.3-.3.3-.5l-6.2-21Z" fill="#000"/></svg>