<svg width="72" height="97" fill="none" xmlns="http://www.w3.org/2000/svg"><path fill-rule="evenodd" clip-rule="evenodd" d="M55.8 88.095h-6.9l-8.6-21.2c-.7-1.8-2.6-2.8-4.5-2.4-1.5 0-3 .9-3.6 2.4l-9 21.2h-6.9c-1.4 0-2.4-1.4-1.9-2.7l19.8-48.8c.3-.8 1.1-1.2 1.8-1.2s1.5.4 1.8 1.2l19.8 48.8c.6 1.3-.4 2.7-1.8 2.7Zm-19.7-10.1 4.1 10.1h-8.4l4.3-10.1Zm4.6-56c-.2-.5-.2-1 0-1.5l5.9-14.7c.7-1.7.3-3.8-1.2-4.9-.6-.5-1.4-.7-2.1-.8-1.7-.4-3.3.5-4 2l-3.3 8.4-3.4-8.3c-.6-1.6-2.3-2.4-4-2-.7.1-1.4.3-2.1.8-1.5 1.1-1.9 3.2-1.2 4.9l5.9 14.7c.2.5.2 1 0 1.5l-27.5 68c-1.2 2.9 1 6.1 4.1 6.1H64.1c3.1 0 5.3-3.2 4.1-6.1l-27.5-68.1ZM8 38.695c0-2.2-1.8-4-4-4s-4 1.8-4 4 1.8 4 4 4 4-1.8 4-4Zm56 0c0-2.2 1.8-4 4-4s4 1.8 4 4-1.8 4-4 4-4-1.8-4-4Zm-2.5-19.8c1.6-1.6 1.6-4.1 0-5.7-1.6-1.6-4.1-1.6-5.7 0-1.6 1.6-1.6 4.1 0 5.7 1.6 1.6 4.1 1.6 5.7 0Zm-45.3-5.7c1.6 1.6 1.6 4.1 0 5.7-1.6 1.6-4.1 1.6-5.7 0-1.6-1.6-1.6-4.1 0-5.7 1.6-1.6 4.1-1.6 5.7 0Z" fill="#000"/></svg>