<svg width="66" height="98" fill="none" xmlns="http://www.w3.org/2000/svg"><path d="m65.278 8.3-2.9-2.9c-.8-.8-2-.8-2.8 0l-2 2c-.4.3-.6.9-.6 1.4v8.8c0 10.9-7.3 20.1-17.3 23-1.4.4-2.7-.6-2.7-2V7.3c0-.5.2-1 .6-1.4.8-.8.8-2 0-2.8-1.3-1.3-3.2-2.5-3.2-2.5-.8-.8-2-.8-2.8 0 0 0-1.9 1.2-3.2 2.5-.8.8-.8 2 0 2.8.4.3.6.8.6 1.4v31.3c0 1.4-1.3 2.4-2.7 2.1-10-2.9-17.3-12.1-17.3-23v-8c0-.5-.2-1-.6-1.4l-2-2c-.8-.8-2-.8-2.8 0l-2.9 2.9c-.7.7-.9 1.7-.4 2.5.4.8.7 1.7.7 2.7v2.3c0 15.8 11.1 29.5 26.2 32.3 1 .2 1.8 1 1.8 2.1v5.6h-8c-2.2 0-4 1.8-4 4s1.8 4 4 4h8V84c-.9 3.4-4 5.9-7.7 5.9-2.3 0-4.2 1.9-4.2 4.2v2.4c0 .5.3.9.8 1 1.1.3 2.3.4 3.5.4 4.6 0 8.8-2 11.7-5.1 2.9 3.1 7.1 5.1 11.7 5.1 1.2 0 2.4-.2 3.5-.4.4-.1.8-.5.8-1v-2.4c0-2.3-1.9-4.2-4.2-4.2-3.7 0-6.8-2.5-7.7-5.9V64.8h8c2.2 0 4-1.8 4-4s-1.8-4-4-4h-8v-5.6c0-1 .8-1.9 1.8-2.1 14.9-2.9 26-16.6 26-32.4v-3.1c0-1 .3-2 .8-2.8.4-.8.2-1.8-.5-2.5Z" fill="#000"/></svg>